<svg xmlns="http://www.w3.org/2000/svg" xmlns:xlink="http://www.w3.org/1999/xlink" viewBox="0 0 425.2 425.2">
  <style>
    .st0{fill:#fff}.st2{fill:#ec7b02}.st13{fill:#706f6f}
  </style>
  <circle id="Kreis" cx="212.6" cy="212.6" r="212.6" class="st0"/>
  <g id="NEW">
    <defs>
      <circle id="SVGID_1_" cx="212.6" cy="212.6" r="212.6"/>
    </defs>
    <clipPath id="SVGID_2_">
      <use overflow="visible" xlink:href="#SVGID_1_"/>
    </clipPath>
    <g clip-path="url(#SVGID_2_)">
      <path d="M37.12 149.08l2.23 21.17 604.71-9.68v-11.64z" class="st2"/>
      <path d="M295.35 292.72l-9.99-3.82V139.8l9.4-1.56z" class="st2"/>
      <path fill="#fff" stroke="#ec7b02" stroke-miterlimit="10" stroke-width="1.31" d="M295.35 286.27l8.4 3.65-.58-149.83-7.82-1.11z"/>
      <path d="M192.17 244.06h-6.33V144.8l5.96-1.1z" class="st2"/>
      <path fill="#fff" stroke="#ec7b02" stroke-miterlimit="10" stroke-width=".84" d="M191.71 240.57l5.41 2.73v-98.5l-4.95-.63z"/>
      <path d="M142.93 220.53h-5.15v-76.36l4.81-.76z" class="st2"/>
      <path fill="#fff" stroke="#ec7b02" stroke-miterlimit="10" stroke-width=".66" d="M142.93 220.15l4.04 1.75v-77.1l-4.04-.98z"/>
      <path d="M111.19 206.31l-4.33-2.11v-55.12l4.33-2.42z" class="st2"/>
      <path fill="#fff" stroke="#ec7b02" stroke-miterlimit="10" stroke-width=".5" d="M111.23 205.98l3.13 1.36-.41-59.85-2.54-.53z"/>
      <path d="M88.29 150.89h3.24v47.4h-3.24z" class="st2"/>
      <path fill="#fff" stroke="#ec7b02" stroke-miterlimit="10" stroke-width=".41" d="M91.52 197.42l2.54.87v-47.4l-2.54-.38z"/>
      <path d="M75.95 190.66l-2.65-1.02v-37.98h2.74z" class="st2"/>
      <path fill="#fff" stroke="#ec7b02" stroke-miterlimit="10" stroke-width=".34" d="M76.04 190.84l2.15 1.07v-40.25l-2.15-.55z"/>
      <path d="M64.75 186.21l-2.34-1.15v-32.38h2.34z" class="st2"/>
      <path fill="#fff" stroke="#ec7b02" stroke-miterlimit="10" stroke-width=".29" d="M64.75 186.21l1.94.85-.1-33.84-1.84-.54z"/>
      <path d="M54.85 181.86l-2.11-.51-.08-29.69h2.19z" class="st2"/>
      <path fill="#fff" stroke="#ec7b02" stroke-miterlimit="10" stroke-width=".27" d="M55.01 181.44l1.71.79v-30.94l-1.71.37z"/>
      <path d="M48.63 178.91l-1.94-.3v-26.95h1.94z" class="st2"/>
      <path fill="#fff" stroke="#ec7b02" stroke-miterlimit="10" stroke-width=".24" d="M48.63 178.78l1.38.88.15-28.37-1.53.37z"/>
      <path d="M42.9 176.95l-1.91-1.49v-23.4h1.82z" class="st2"/>
      <path fill="#fff" stroke="#ec7b02" stroke-miterlimit="10" stroke-width=".23" d="M42.81 176.32l1.42.55v-24.51l-1.42-.3z"/>
      <path d="M11.83 140.06h.46v53.87h-.46z" class="st2" transform="rotate(-90 12.06 167)"/>
      <path d="M362.01 158.45h3.16v12.2h-3.16zm-18.66 0h3.16v13.44h-3.16zm-23.23 0h3.16v15.49h-3.16zm118.87-3.73h2.74v10.56h-2.74zm-16.15 0h2.74v11.64h-2.74zm-20.11 0h2.74v13.42h-2.74zm104.9-5.88h3.16v12.2h-3.16zm-18.65 0h3.16v13.44h-3.16zm-23.23 0h3.16v15.49h-3.16zm118.87-3.74h2.74v10.56h-2.74zm-16.15 0h2.74v11.64h-2.74zm-20.11 0h2.74v13.42h-2.74zm-280.92 17.36h3.16v15.49h-3.16zm-19.37 0h3.16v16.51h-3.16zm-16.81 0h3.16v16.92h-3.16zm-21.13 0h3.16v18.35h-3.16zm-46.33 3.53h3.16v18.35h-3.16zm-13.9 0h3.16v20.22h-3.16zm-131.26.99l4.45-.22 387.35 169.89-62.31 58.89zm-2.7-.22l327.32 235.83-92.48 32.76L10.81 166.89zm-7.42 0l233.79 266.52-128.11-4.15S-12.12 174.09-12.08 174.92c.02.52 13.66-7.7 13.66-7.7l6.94-.46zm-18.17 17.58c3.04-2.37 104.03 221.98 104.03 221.98H23.09L-32.04 221.9l22.39-37.56z" class="st2"/>
    </g>
  </g>
  <g id="Ebene_3">
    <path d="M23.09 209.38H402.1v86.25H23.09z" class="st0"/>
    <path d="M177.68 267.94H397.6v22.6H177.68z" class="st2"/>
    <path d="M196.72 280.35v4.95h-2.74v-12.9h3.53c1.65 0 2.87.32 3.66.96s1.18 1.61 1.18 2.91a3.78 3.78 0 01-.65 2.16 4.13 4.13 0 01-1.49 1.25l1.76 2.81.65 1.03.56.9.41.64.15.25h-3.04l-2.8-4.95h-1.18zm0-2.23h.74c.76 0 1.3-.15 1.63-.45.33-.3.49-.75.49-1.34 0-.61-.18-1.05-.53-1.31-.35-.26-.9-.39-1.64-.39h-.7v3.49zm25.05 7.18l-.88-3.07h-4.45l-.89 3.07h-2.76l4.19-12.96h3.35l4.21 12.96h-2.77zm-1.51-5.37l-.83-2.82a9.98 9.98 0 01-.16-.52l-.22-.8a22.62 22.62 0 01-.37-1.63 7.25 7.25 0 01-.22 1.02l-.15.6-.15.57-.13.47-.08.3-.82 2.82h3.13zm23.32-3.51c0 .56-.09 1.11-.26 1.62-.17.52-.45.97-.84 1.37-.39.39-.91.71-1.54.94-.64.23-1.43.35-2.37.35h-.63v4.59h-2.74v-12.9h3.58c.83 0 1.55.09 2.15.28.6.19 1.1.45 1.49.79.39.34.68.76.87 1.26.19.51.29 1.07.29 1.7zm-5.64 2.05h.54c.77 0 1.35-.15 1.74-.46.39-.31.59-.8.59-1.49 0-.64-.18-1.11-.52-1.42-.35-.31-.9-.46-1.65-.46h-.7v3.83zm25.49-2.05c0 .56-.09 1.11-.26 1.62-.17.52-.45.97-.84 1.37-.39.39-.91.71-1.54.94-.64.23-1.43.35-2.37.35h-.63v4.59h-2.74v-12.9h3.58c.83 0 1.55.09 2.15.28.6.19 1.1.45 1.49.79.39.34.68.76.87 1.26.19.51.29 1.07.29 1.7zm-5.64 2.05h.54c.77 0 1.35-.15 1.74-.46.39-.31.59-.8.59-1.49 0-.64-.18-1.11-.52-1.42-.35-.31-.9-.46-1.65-.46h-.7v3.83zm24.55 6.83h-7.43v-12.9h7.43v2.24h-4.7v2.83h4.37v2.24h-4.37v3.33h4.7v2.26zm14.47-4.95v4.95h-2.74v-12.9h3.53c1.65 0 2.87.32 3.66.96s1.18 1.61 1.18 2.91a3.78 3.78 0 01-.65 2.16 4.13 4.13 0 01-1.49 1.25l1.76 2.81.65 1.03.56.9.41.64.15.25h-3.04l-2.8-4.95h-1.18zm0-2.23h.74c.76 0 1.3-.15 1.63-.45.33-.3.49-.75.49-1.34 0-.61-.18-1.05-.53-1.31-.35-.26-.9-.39-1.64-.39h-.7v3.49zm24.76 3.6c0 .58-.1 1.1-.3 1.56-.2.46-.49.86-.87 1.18-.38.33-.84.58-1.39.76-.55.18-1.18.26-1.89.26-.62 0-1.23-.07-1.81-.19a6.41 6.41 0 01-1.61-.58v-2.54c.28.13.57.27.86.39a9.4 9.4 0 001.77.58c.3.06.59.09.89.09.3 0 .56-.03.77-.1s.39-.16.52-.28c.13-.12.23-.26.29-.43.06-.17.09-.35.09-.55 0-.24-.05-.45-.15-.64a1.9 1.9 0 00-.43-.52 4.12 4.12 0 00-.67-.47l-.88-.49-.91-.51c-.34-.2-.65-.45-.95-.75a3.5 3.5 0 01-1.05-2.59 4 4 0 01.29-1.55c.19-.46.46-.84.82-1.16a3.7 3.7 0 011.28-.72 5.56 5.56 0 012.6-.19 11.13 11.13 0 012.67.85l-.88 2.13-.74-.33-.67-.24a4.46 4.46 0 00-1.27-.2c-.46 0-.81.12-1.05.37-.24.24-.37.57-.37.98a1.29 1.29 0 00.46 1.05c.16.15.37.3.63.45l.93.52c.44.24.85.48 1.22.72s.69.52.96.81a3.28 3.28 0 01.84 2.33zm23.46 3.58h-3.11l-1.59-6.36-.09-.37-.11-.54-.12-.63-.11-.64-.09-.57-.06-.42-.06.42-.09.56-.11.63-.12.63-.11.55-.09.39-1.57 6.35h-3.11l-3.11-12.9h2.69l1.47 7.04.07.41.11.6.13.71.13.72.12.66.08.5.07-.49.1-.64.12-.7.12-.68.1-.56.07-.35 1.79-7.23h2.4l1.79 7.23.07.35.1.56a22.82 22.82 0 01.24 1.38l.11.64.07.49.07-.5.11-.66.13-.72.13-.71.11-.6.07-.41 1.47-7.04h2.69l-3.08 12.9zm18.6 0h-5.87v-1.55l1.57-.72v-8.35l-1.57-.72v-1.55h5.87v1.55l-1.57.72v8.35l1.57.72v1.55zm11.24 0v-12.9h2.74v10.64h4.7v2.26h-7.44z" class="st0"/>
    <path d="M27.95 267.94H172v22.6H27.95z" class="st13"/>
    <path d="M55.76 278.83c0 .99-.12 1.9-.35 2.72a5.78 5.78 0 01-1.06 2.1 4.86 4.86 0 01-1.8 1.35c-.73.32-1.59.48-2.57.48a6.3 6.3 0 01-2.57-.48 4.7 4.7 0 01-1.8-1.35 5.6 5.6 0 01-1.06-2.11c-.23-.82-.35-1.73-.35-2.73s.12-1.91.35-2.72c.23-.82.59-1.51 1.06-2.09a4.84 4.84 0 011.8-1.34 6.57 6.57 0 012.58-.47c.99 0 1.84.16 2.57.47s1.32.76 1.8 1.34c.47.58.82 1.28 1.06 2.09.22.82.34 1.73.34 2.74zm-8.76 0c0 .68.06 1.28.18 1.82s.3.99.54 1.37.55.66.92.86c.37.2.81.3 1.33.3s.97-.1 1.35-.3c.37-.2.68-.49.92-.86s.41-.83.53-1.37a9.16 9.16 0 000-3.64c-.12-.54-.29-1-.53-1.37a2.34 2.34 0 00-.91-.86c-.37-.2-.81-.3-1.33-.3-.51 0-.96.1-1.33.3-.38.2-.69.49-.93.86-.24.38-.43.83-.54 1.37s-.2 1.14-.2 1.82zm31.36 6.47h-3.47l-5.07-9.76h-.08l.09 1.35.06 1.2.02 1.13v6.07h-2.45v-12.9h3.45l5.07 9.66h.05l-.06-1.32-.02-.58-.02-.59-.01-.57v-6.6h2.45v12.91zm12.3 0v-12.9h2.74v10.64h4.7v2.26h-7.44zm23.54 0h-5.87v-1.55l1.57-.72v-8.35l-1.57-.72v-1.55h5.87v1.55l-1.57.72v8.35l1.57.72v1.55zm22.15 0h-3.47l-5.07-9.76h-.08l.09 1.35.06 1.2.02 1.13v6.07h-2.45v-12.9h3.45l5.07 9.66h.05l-.06-1.32-.02-.58-.02-.59-.01-.57v-6.6h2.45v12.91zm19.73 0h-7.43v-12.9h7.43v2.24h-4.7v2.83h4.37v2.24h-4.37v3.33h4.7v2.26z" class="st0"/>
    <path d="M43.2 259.49h-8.5v-40.72h23.34v7.07H43.2v10.5h13.82v7.05H43.2v16.1zm57.52-20.42c0 3.14-.37 6-1.1 8.58a18.12 18.12 0 01-3.36 6.63 14.87 14.87 0 01-5.7 4.26c-2.29 1-5 1.5-8.12 1.5-3.12 0-5.83-.5-8.12-1.5-2.3-1-4.19-2.43-5.68-4.26a18.14 18.14 0 01-3.34-6.64 31.37 31.37 0 01-1.1-8.62c0-3.15.37-6.02 1.1-8.59a17.92 17.92 0 013.35-6.59 14.95 14.95 0 015.7-4.22c2.29-1 5.01-1.5 8.15-1.5 3.12 0 5.82.5 8.1 1.5a14.7 14.7 0 015.67 4.23 18.19 18.19 0 013.34 6.6 31.2 31.2 0 011.11 8.62zm-27.63 0c0 2.14.18 4.06.56 5.75.37 1.7.94 3.14 1.71 4.32a7.93 7.93 0 002.91 2.71c1.17.63 2.56.94 4.18.94 1.65 0 3.07-.32 4.25-.94a7.83 7.83 0 002.9-2.71 13.03 13.03 0 001.67-4.32c.36-1.69.54-3.61.54-5.75 0-2.13-.18-4.05-.54-5.75-.36-1.7-.92-3.14-1.67-4.33a7.63 7.63 0 00-2.89-2.73 8.74 8.74 0 00-4.2-.94c-1.62 0-3.02.32-4.2.94a7.84 7.84 0 00-2.94 2.73 12.98 12.98 0 00-1.71 4.33c-.39 1.7-.57 3.62-.57 5.75zm58.35 9.12c0 1.82-.31 3.46-.94 4.91a10.11 10.11 0 01-2.73 3.74 12.64 12.64 0 01-4.4 2.38c-1.74.56-3.73.83-5.97.83-1.97 0-3.87-.21-5.7-.61a20.47 20.47 0 01-5.08-1.84v-8.02c.89.43 1.79.84 2.7 1.24.91.4 1.84.76 2.77 1.07.94.32 1.87.57 2.81.76.94.18 1.87.28 2.8.28a8.3 8.3 0 002.44-.32 4.34 4.34 0 001.64-.89c.42-.38.72-.84.92-1.37a4.89 4.89 0 00-.2-3.76 6.3 6.3 0 00-1.37-1.65c-.58-.51-1.29-1-2.12-1.49-.83-.48-1.75-.99-2.77-1.53a67.4 67.4 0 01-2.87-1.62c-1.06-.63-2.06-1.41-3-2.35s-1.72-2.07-2.35-3.4a11.07 11.07 0 01-.95-4.78c0-1.82.3-3.45.91-4.89a9.94 9.94 0 012.58-3.65 11.34 11.34 0 014.05-2.27c1.59-.52 3.37-.78 5.34-.78a21 21 0 015.67.75c.92.24 1.84.54 2.77.89.93.35 1.89.76 2.87 1.23l-2.79 6.71a51.7 51.7 0 00-2.34-1.03c-.72-.29-1.43-.55-2.12-.75a14.24 14.24 0 00-4.01-.62c-1.45 0-2.56.39-3.33 1.16a4.15 4.15 0 00-1.16 3.07c0 .69.11 1.3.35 1.83.23.53.6 1.03 1.11 1.49.51.46 1.17.94 1.98 1.42s1.79 1.03 2.94 1.64c1.4.74 2.67 1.5 3.85 2.27 1.17.77 2.18 1.63 3.02 2.56a10.48 10.48 0 012.68 7.39zm29.89 0c0 1.82-.31 3.46-.94 4.91a10.11 10.11 0 01-2.73 3.74c-1.2 1.03-2.67 1.82-4.4 2.38s-3.73.83-5.97.83c-1.97 0-3.87-.21-5.7-.61a20.47 20.47 0 01-5.08-1.84v-8.02c.89.43 1.79.84 2.7 1.24.91.4 1.84.76 2.77 1.07.94.32 1.87.57 2.81.76.94.18 1.87.28 2.8.28a8.3 8.3 0 002.44-.32 4.34 4.34 0 001.64-.89c.42-.38.72-.84.92-1.37a4.89 4.89 0 00-.2-3.76 6.3 6.3 0 00-1.37-1.65c-.58-.51-1.29-1-2.12-1.49-.83-.48-1.75-.99-2.77-1.53a67.4 67.4 0 01-2.87-1.62c-1.06-.63-2.06-1.41-3-2.35s-1.72-2.07-2.35-3.4a11.07 11.07 0 01-.95-4.78c0-1.82.3-3.45.91-4.89a9.94 9.94 0 012.58-3.65 11.34 11.34 0 014.05-2.27c1.59-.52 3.37-.78 5.34-.78a21 21 0 015.67.75c.92.24 1.84.54 2.77.89.93.35 1.89.76 2.87 1.23l-2.79 6.71a51.7 51.7 0 00-2.34-1.03c-.72-.29-1.43-.55-2.12-.75a14.24 14.24 0 00-4.01-.62c-1.45 0-2.56.39-3.33 1.16a4.15 4.15 0 00-1.16 3.07c0 .69.11 1.3.35 1.83.23.53.6 1.03 1.11 1.49.51.46 1.17.94 1.98 1.42s1.79 1.03 2.94 1.64c1.4.74 2.67 1.5 3.85 2.27 1.17.77 2.18 1.63 3.02 2.56a10.48 10.48 0 012.68 7.39zm23.03-11.57h16.15v21.12c-1.08.35-2.16.67-3.26.96a45.04 45.04 0 01-11.22 1.34c-3.04 0-5.74-.45-8.09-1.35a15.18 15.18 0 01-5.93-4.01c-1.61-1.77-2.83-3.96-3.66-6.57s-1.25-5.62-1.25-9.04c0-3.19.47-6.08 1.4-8.66.93-2.58 2.3-4.77 4.11-6.59a18.3 18.3 0 016.68-4.18 26.3 26.3 0 019.09-1.46c2.18 0 4.3.23 6.38.7s3.98 1.07 5.71 1.81l-2.87 6.91a22.46 22.46 0 00-4.27-1.58 19.04 19.04 0 00-5-.65c-1.89 0-3.6.33-5.11.99a10.98 10.98 0 00-3.88 2.8 12.55 12.55 0 00-2.48 4.37 17.69 17.69 0 00-.86 5.71c0 2.01.2 3.84.6 5.5.4 1.67 1.03 3.1 1.88 4.3a8.72 8.72 0 003.3 2.81c1.35.67 2.96 1 4.83 1a24.59 24.59 0 005.49-.56v-8.5h-7.72v-7.17zm41.08 22.87h-18.52v-4.9l4.96-2.28v-26.35l-4.96-2.28v-4.9h18.52v4.9l-4.95 2.28v26.35l4.95 2.28v4.9zm29.28-11.3c0 1.82-.31 3.46-.94 4.91a10.11 10.11 0 01-2.73 3.74c-1.2 1.03-2.67 1.82-4.4 2.38s-3.73.83-5.97.83c-1.97 0-3.87-.21-5.7-.61a20.47 20.47 0 01-5.08-1.84v-8.02c.89.43 1.79.84 2.7 1.24.91.4 1.84.76 2.77 1.07.94.32 1.87.57 2.81.76.94.18 1.87.28 2.8.28a8.3 8.3 0 002.44-.32 4.34 4.34 0 001.64-.89c.42-.38.72-.84.92-1.37a4.89 4.89 0 00-.2-3.76 6.3 6.3 0 00-1.37-1.65c-.58-.51-1.29-1-2.12-1.49-.83-.48-1.75-.99-2.77-1.53a67.4 67.4 0 01-2.87-1.62c-1.06-.63-2.06-1.41-3-2.35s-1.72-2.07-2.35-3.4a11.07 11.07 0 01-.95-4.78c0-1.82.3-3.45.91-4.89a9.94 9.94 0 012.58-3.65 11.34 11.34 0 014.05-2.27c1.59-.52 3.37-.78 5.34-.78a21 21 0 015.67.75c.92.24 1.84.54 2.77.89.93.35 1.89.76 2.87 1.23l-2.79 6.71a51.7 51.7 0 00-2.34-1.03c-.72-.29-1.43-.55-2.12-.75a14.24 14.24 0 00-4.01-.62c-1.45 0-2.56.39-3.33 1.16a4.15 4.15 0 00-1.16 3.07c0 .69.11 1.3.35 1.83.23.53.6 1.03 1.11 1.49.51.46 1.17.94 1.98 1.42s1.79 1.03 2.94 1.64c1.4.74 2.67 1.5 3.85 2.27 1.17.77 2.18 1.63 3.02 2.56a10.48 10.48 0 012.68 7.39z" class="st2"/>
    <path d="M304.25 259.15h-26.9v-5.9l9.43-10.17a217.6 217.6 0 003.23-3.54c.97-1.08 1.8-2.13 2.49-3.15a14.82 14.82 0 001.62-3.13c.38-1.06.58-2.2.58-3.43 0-1.35-.41-2.4-1.22-3.15a4.64 4.64 0 00-3.27-1.12 8.8 8.8 0 00-4.17 1.07 21.85 21.85 0 00-4.2 3.04l-4.61-5.46c.82-.75 1.68-1.47 2.58-2.15a17.56 17.56 0 0110.88-3.58c1.92 0 3.64.26 5.17.79 1.52.53 2.83 1.28 3.91 2.26a9.7 9.7 0 012.48 3.55c.58 1.39.87 2.95.87 4.69 0 1.57-.28 3.08-.82 4.51a20.31 20.31 0 01-2.25 4.22 37.6 37.6 0 01-3.3 4.11 117.5 117.5 0 01-4.01 4.15l-4.83 4.85v.38h16.34v7.16zm30.98-20.05c0 3.23-.25 6.12-.75 8.66s-1.31 4.7-2.41 6.47a11.32 11.32 0 01-4.28 4.06c-1.75.93-3.85 1.4-6.32 1.4-2.32 0-4.34-.46-6.06-1.4a11.6 11.6 0 01-4.28-4.06 19.93 19.93 0 01-2.54-6.47c-.56-2.54-.84-5.43-.84-8.66s.25-6.13.75-8.69a19.3 19.3 0 012.4-6.5 11.27 11.27 0 014.25-4.07 13.1 13.1 0 016.31-1.41c2.3 0 4.31.47 6.03 1.4 1.72.93 3.15 2.29 4.31 4.06a19.72 19.72 0 012.58 6.5c.57 2.55.85 5.46.85 8.71zm-19.03 0c0 4.57.39 8.01 1.18 10.31.78 2.3 2.15 3.46 4.08 3.46 1.9 0 3.27-1.14 4.1-3.43.83-2.28 1.25-5.73 1.25-10.34 0-4.59-.42-8.04-1.25-10.35-.83-2.31-2.2-3.47-4.1-3.47-.97 0-1.79.29-2.45.88a6.2 6.2 0 00-1.63 2.61c-.42 1.15-.72 2.59-.91 4.32s-.27 3.73-.27 6.01zm49.9 20.05h-26.9v-5.9l9.43-10.17a217.6 217.6 0 003.23-3.54c.97-1.08 1.8-2.13 2.49-3.15.69-1.03 1.23-2.07 1.62-3.13s.58-2.2.58-3.43c0-1.35-.41-2.4-1.22-3.15a4.64 4.64 0 00-3.27-1.12 8.8 8.8 0 00-4.17 1.07 21.85 21.85 0 00-4.2 3.04l-4.61-5.46c.82-.75 1.68-1.47 2.58-2.15a17.56 17.56 0 0110.88-3.58c1.92 0 3.64.26 5.17.79 1.52.53 2.83 1.28 3.91 2.26a9.7 9.7 0 012.48 3.55c.58 1.39.87 2.95.87 4.69 0 1.57-.28 3.08-.82 4.51a20.31 20.31 0 01-2.25 4.22 37.6 37.6 0 01-3.3 4.11 117.5 117.5 0 01-4.01 4.15l-4.83 4.85v.38h16.34v7.16zm24.19 0h-8.47v-23.19l.02-1.72.06-2.08.08-2.18.07-2a8.4 8.4 0 01-.47.49l-.74.72-.85.81c-.29.27-.58.52-.85.74l-4.61 3.7-4.11-5.1 12.91-10.28h6.96v40.09zM105.23 97.49c0 3.02-.23 5.72-.7 8.09a17.93 17.93 0 01-2.25 6.04 10.42 10.42 0 01-3.99 3.79c-1.63.87-3.6 1.3-5.9 1.3-2.17 0-4.05-.43-5.66-1.3a10.78 10.78 0 01-3.99-3.79 18.42 18.42 0 01-2.37-6.04 37.96 37.96 0 01-.78-8.09c0-3.02.23-5.72.7-8.11a18.24 18.24 0 012.24-6.07 10.62 10.62 0 013.97-3.8 12.18 12.18 0 015.89-1.32c2.15 0 4.03.43 5.63 1.3a11.1 11.1 0 014.02 3.79 18.3 18.3 0 012.41 6.07c.51 2.39.78 5.1.78 8.14zm-17.76 0c0 4.27.37 7.47 1.1 9.62.73 2.15 2 3.23 3.81 3.23 1.77 0 3.05-1.07 3.83-3.2.78-2.13 1.16-5.35 1.16-9.65 0-4.28-.39-7.5-1.16-9.66-.78-2.16-2.05-3.24-3.83-3.24-.9 0-1.67.27-2.29.82a5.87 5.87 0 00-1.52 2.43 17.28 17.28 0 00-.84 4.03 51.43 51.43 0 00-.26 5.62zm21.32 2.81c0-1.79.1-3.57.29-5.35.2-1.77.55-3.48 1.05-5.11.5-1.63 1.19-3.14 2.05-4.54.86-1.4 1.95-2.61 3.28-3.65a15.14 15.14 0 014.76-2.43 21.4 21.4 0 017.67-.85l1.29.06c.44.03.86.06 1.27.12s.78.11 1.1.18v6.32a20.45 20.45 0 00-4.25-.51c-2.3 0-4.2.29-5.68.86a8.6 8.6 0 00-3.53 2.39 9.07 9.07 0 00-1.86 3.69 24.03 24.03 0 00-.68 4.76h.31c.34-.61.75-1.19 1.24-1.73s1.05-1 1.7-1.38a9 9 0 012.19-.91c.81-.22 1.72-.33 2.73-.33 1.62 0 3.08.26 4.38.79 1.3.53 2.39 1.3 3.29 2.3.9 1.01 1.58 2.24 2.06 3.71.48 1.47.71 3.15.71 5.04 0 2.03-.28 3.85-.86 5.45a11.35 11.35 0 01-2.45 4.08 10.5 10.5 0 01-3.84 2.56c-1.5.59-3.19.88-5.07.88-1.84 0-3.57-.33-5.17-.99-1.6-.66-3-1.66-4.18-3.01a14.3 14.3 0 01-2.79-5.11 23.17 23.17 0 01-1.01-7.29zm13 10.09c.7 0 1.34-.13 1.91-.4a3.96 3.96 0 001.49-1.2c.42-.54.74-1.22.97-2.04.23-.82.34-1.79.34-2.92 0-1.83-.38-3.26-1.14-4.31s-1.92-1.57-3.47-1.57c-.78 0-1.5.15-2.15.46a5.48 5.48 0 00-2.72 2.86 4.9 4.9 0 00-.37 1.87c0 .87.11 1.74.32 2.6.21.86.54 1.64.97 2.33.44.69.97 1.25 1.61 1.68a4 4 0 002.24.64zm16.92 2.15c0-.8.11-1.48.34-2.03a3.42 3.42 0 012.39-2.08 6.65 6.65 0 013.47 0 3.54 3.54 0 012.39 2.08c.24.55.36 1.23.36 2.03 0 .77-.12 1.43-.36 1.97a3.78 3.78 0 01-2.39 2.14 6.31 6.31 0 01-3.47 0 3.69 3.69 0 01-2.39-2.14 5.1 5.1 0 01-.34-1.97zm13.51-7.2v-6.4h13.74v6.4h-13.74zm42.56-7.85c0 3.02-.23 5.72-.7 8.09a17.93 17.93 0 01-2.25 6.04c-1.03 1.66-2.36 2.92-3.99 3.79s-3.6 1.3-5.9 1.3c-2.17 0-4.05-.43-5.66-1.3a10.78 10.78 0 01-3.99-3.79 18.42 18.42 0 01-2.37-6.04 37.96 37.96 0 01-.78-8.09c0-3.02.23-5.72.7-8.11a18.24 18.24 0 012.24-6.07 10.55 10.55 0 013.97-3.8 12.18 12.18 0 015.89-1.32c2.15 0 4.03.43 5.63 1.3a11.1 11.1 0 014.02 3.79 18.3 18.3 0 012.41 6.07c.52 2.39.78 5.1.78 8.14zm-17.76 0c0 4.27.37 7.47 1.1 9.62.73 2.15 2 3.23 3.81 3.23 1.77 0 3.05-1.07 3.83-3.2.78-2.13 1.16-5.35 1.16-9.65 0-4.28-.39-7.5-1.16-9.66-.78-2.16-2.05-3.24-3.83-3.24-.9 0-1.67.27-2.29.82a5.87 5.87 0 00-1.52 2.43 17.28 17.28 0 00-.84 4.03 54.07 54.07 0 00-.26 5.62zm46.38-2.74c0 1.79-.1 3.58-.29 5.36-.2 1.78-.55 3.48-1.05 5.11a19.84 19.84 0 01-2.05 4.54 13.58 13.58 0 01-3.28 3.65 15.34 15.34 0 01-4.76 2.42 21.5 21.5 0 01-7.69.85l-1.29-.06-1.27-.1c-.41-.04-.77-.1-1.08-.17V110a16.58 16.58 0 004.24.54c2.3 0 4.2-.28 5.68-.86a8.44 8.44 0 003.53-2.41 9.24 9.24 0 001.86-3.7c.37-1.43.59-3.01.68-4.73h-.33a8.93 8.93 0 01-1.23 1.71c-.48.53-1.04.99-1.69 1.38s-1.38.7-2.2.92c-.82.22-1.73.33-2.74.33a11.5 11.5 0 01-4.38-.79 8.86 8.86 0 01-3.29-2.3 10.26 10.26 0 01-2.06-3.71 16.22 16.22 0 01-.72-5.04c0-2.03.29-3.85.86-5.45a10.6 10.6 0 016.29-6.65c1.51-.6 3.2-.9 5.08-.9 1.84 0 3.57.33 5.17.99a11.1 11.1 0 014.17 3.01 14.57 14.57 0 012.79 5.12 22.43 22.43 0 011.05 7.29zm-13-10.06c-.7 0-1.34.13-1.92.38a3.9 3.9 0 00-1.5 1.19 5.83 5.83 0 00-.97 2.05c-.23.83-.34 1.8-.34 2.93 0 1.81.38 3.24 1.15 4.3.77 1.06 1.93 1.59 3.48 1.59.78 0 1.5-.15 2.15-.46a5.48 5.48 0 002.72-2.86 4.9 4.9 0 00.37-1.87c0-.87-.11-1.74-.32-2.6a8.24 8.24 0 00-.97-2.33 5.62 5.62 0 00-1.61-1.68 3.93 3.93 0 00-2.24-.64zm17.86 27.85c0-.8.11-1.48.34-2.03a3.42 3.42 0 012.39-2.08 6.65 6.65 0 013.47 0 3.54 3.54 0 012.39 2.08c.24.55.36 1.23.36 2.03 0 .77-.12 1.43-.36 1.97a3.78 3.78 0 01-2.39 2.14 6.31 6.31 0 01-3.47 0 3.69 3.69 0 01-2.39-2.14 5.3 5.3 0 01-.34-1.97z" class="st13"/>
    <path d="M240.16 127.2c-1.11 0-2.08-.06-2.92-.17-.84-.11-1.54-.24-2.13-.4v-6.6c.63.14 1.29.26 1.98.36.69.1 1.45.15 2.27.15.78 0 1.52-.09 2.19-.26a4.6 4.6 0 001.77-.88c.5-.42.9-.98 1.18-1.68.28-.7.42-1.58.42-2.64v-36.3h7.93v36.06c0 2.15-.31 4-.93 5.55a10.19 10.19 0 01-2.61 3.85 10.5 10.5 0 01-4.01 2.24 17.3 17.3 0 01-5.14.72zm40.21-11l-1.05-3.66h-.41a7.64 7.64 0 01-3.45 3.17 9.3 9.3 0 01-2.23.75c-.78.16-1.59.24-2.41.24-1.4 0-2.67-.2-3.81-.6a7.46 7.46 0 01-2.94-1.88c-.82-.85-1.45-1.94-1.89-3.25s-.67-2.89-.67-4.74V87.58h7.81v16.71c0 2.06.31 3.61.93 4.65.62 1.03 1.62 1.55 2.98 1.55 1.03 0 1.88-.21 2.56-.61.68-.41 1.22-1.02 1.63-1.82s.69-1.79.86-2.97.26-2.52.26-4.04V87.58h7.8v28.61h-5.97zm38.98 0h-7.81V99.48c0-2.06-.31-3.61-.93-4.65-.62-1.03-1.62-1.55-2.98-1.55a4.9 4.9 0 00-2.56.61c-.68.41-1.22 1.02-1.63 1.82s-.69 1.79-.86 2.97a28.56 28.56 0 00-.26 4.04v13.46h-7.8v-28.6h5.96l1.05 3.66h.43a7.2 7.2 0 011.5-1.89 8.65 8.65 0 014.16-2.06c.78-.16 1.59-.24 2.4-.24 1.4 0 2.67.2 3.82.6a7.46 7.46 0 012.94 1.88 8.48 8.48 0 011.89 3.26c.44 1.32.67 2.9.67 4.75v18.66zm7.71-36.02c0-.73.11-1.34.33-1.83a3 3 0 01.91-1.18c.39-.3.84-.51 1.36-.63a7.32 7.32 0 013.29 0c.51.12.96.33 1.34.63.39.3.69.69.92 1.18.23.49.34 1.1.34 1.83 0 .72-.11 1.32-.34 1.82a3.17 3.17 0 01-2.26 1.83 6.78 6.78 0 01-3.29 0 3.13 3.13 0 01-2.27-1.83 4.45 4.45 0 01-.33-1.82zm8.14 36.02h-7.8V87.58h7.8v28.62z" class="st13"/>
  </g>
</svg>
