<svg xmlns="http://www.w3.org/2000/svg" viewBox="0 0 132 24">
  <defs />
  <g fill="#fff" fill-rule="evenodd">
    <path
      d="M9.2398 9.1877v2.459h5.883c-.176 1.383-.637 2.392-1.339 3.095-.856.856-2.196 1.8-4.544 1.8-3.622 0-6.454-2.92-6.454-6.542s2.832-6.541 6.454-6.541c1.953 0 3.38.768 4.434 1.756l1.734-1.734c-1.471-1.405-3.424-2.481-6.168-2.481-4.961 0-9.132 4.039-9.132 9s4.171 9 9.132 9c2.678 0 4.697-.878 6.278-2.524 1.624-1.625 2.129-3.907 2.129-5.752 0-.57-.043-1.097-.132-1.536h-8.275zM25.0002 16.5203c-1.76 0-3.279-1.452-3.279-3.521 0-2.089 1.519-3.52 3.279-3.52s3.278 1.431 3.278 3.52c0 2.069-1.518 3.521-3.278 3.521m0-9.329c-3.212 0-5.831 2.442-5.831 5.808 0 3.345 2.619 5.81 5.831 5.81s5.831-2.465 5.831-5.81c0-3.366-2.619-5.808-5.831-5.808M50.6543 16.5203c-1.76 0-3.102-1.496-3.102-3.52 0-2.047 1.342-3.521 3.102-3.521 1.738 0 3.102 1.497 3.102 3.543 0 2.024-1.364 3.498-3.102 3.498zm2.925-8.031h-.088c-.572-.682-1.672-1.298-3.058-1.298-2.904 0-5.433 2.53-5.433 5.809 0 3.256 2.529 5.809 5.433 5.809 1.386 0 2.486-.617 3.058-1.321h.088v.813c0 2.222-1.188 3.41-3.102 3.41-1.562 0-2.531-1.122-2.927-2.068l-2.222.924c.639 1.54 2.332 3.433 5.149 3.433 2.992 0 5.523-1.761 5.523-6.051V7.4903h-2.421v.999zM38.0002 16.5203c-1.76 0-3.278-1.452-3.278-3.521 0-2.089 1.518-3.52 3.278-3.52s3.278 1.431 3.278 3.52c0 2.069-1.518 3.521-3.278 3.521m0-9.329c-3.212 0-5.831 2.442-5.831 5.808 0 3.345 2.619 5.81 5.831 5.81s5.831-2.465 5.831-5.81c0-3.366-2.619-5.808-5.831-5.808M58 18.809h2.51V1.24H58zM68.0759 9.3677c1.033 0 1.908.526 2.2 1.282l-5.246 2.174c0-2.449 1.732-3.456 3.046-3.456m.189 7.153c-1.298 0-2.222-.594-2.817-1.76l7.767-3.213-.264-.66c-.484-1.298-1.958-3.696-4.972-3.696-2.993 0-5.479 2.354-5.479 5.808 0 3.257 2.464 5.809 5.765 5.809 2.662 0 4.202-1.628 4.841-2.574l-1.981-1.321c-.66.969-1.562 1.607-2.86 1.607M90.78 5.184h-7.172v4.994h6.468v1.892h-6.468v4.994h7.172V19h-9.196V3.248h9.196v1.936zm5.786 14.168c-1.144 0-2.101-.33-2.871-.99-.77-.66-1.155-1.5327-1.155-2.618 0-1.1733.4547-2.0937 1.364-2.761.9093-.6673 2.0313-1.001 3.366-1.001 1.188 0 2.1633.22 2.926.66v-.308c0-.792-.2713-1.4263-.814-1.903-.5427-.4767-1.21-.715-2.002-.715-.5867 0-1.1183.1393-1.595.418-.4767.2787-.803.66-.979 1.144l-1.848-.792c.2493-.6453.7407-1.243 1.474-1.793.7333-.55 1.7013-.825 2.904-.825 1.3787 0 2.5227.4033 3.432 1.21s1.364 1.9433 1.364 3.41V19h-1.936v-1.496h-.088c-.8067 1.232-1.9873 1.848-3.542 1.848zm.33-1.848c.836 0 1.595-.3117 2.277-.935.682-.6233 1.023-1.3603 1.023-2.211-.572-.4693-1.43-.704-2.574-.704-.9827 0-1.7233.2127-2.222.638-.4987.4253-.748.924-.748 1.496 0 .528.2273.946.682 1.254.4547.308.9753.462 1.562.462zm20.548 1.672c-1.1293 0-1.991-.3007-2.585-.902-.594-.6013-.891-1.452-.891-2.552v-5.654h-1.892V8.22h1.892v-3.3h2.024v3.3h2.64v1.848h-2.64v5.5c0 1.1733.484 1.76 1.452 1.76.3667 0 .6747-.0587.924-.176l.704 1.738c-.44.1907-.9827.286-1.628.286zM106.356 8.22v1.76h.088c.2347-.6307.671-1.1257 1.309-1.485.638-.3593 1.3383-.539 2.101-.539.22 0 .462.0147.726.044v1.98a7.7762 7.7762 0 00-.814-.044c-.968 0-1.7637.2823-2.387.847s-.935 1.3383-.935 2.321V19h-2.024V8.22h1.936zm16.236-4.972V8.22l-.088 1.496h.088c.2933-.5133.7553-.9497 1.386-1.309.6307-.3593 1.3053-.539 2.024-.539 1.3347 0 2.354.4107 3.058 1.232.704.8213 1.056 1.9213 1.056 3.3V19h-2.024v-6.292c0-1.9947-.8873-2.992-2.662-2.992-.836 0-1.518.3337-2.046 1.001-.528.6673-.792 1.441-.792 2.321V19h-2.024V3.248h2.024z"
    />
  </g>
</svg>