<svg xmlns="http://www.w3.org/2000/svg" viewBox="0 0 224.443 60.1867">
  <defs />
  <radialGradient
    id="a"
    cx="-122.39"
    cy="442.72"
    r="29.58"
    gradientTransform="matrix(1 0 0 -1 134.45 453.73)"
    gradientUnits="userSpaceOnUse"
  >
    <stop offset="0" stop-color="#fff" />
    <stop offset="1" stop-color="#007808" />
  </radialGradient>
  <path
    fill="#0b4819"
    d="M.511 12.364V5.078l4.891 1.685v6.778zM4.455 42.317V15.226l4.675.989v25.178z"
  />
  <path
    fill="#105c80"
    d="M27.321 5.066l-12.015 13.78v5.864l17.82-20.093 28.225-2.185-41.517 43.274 5.527.291 30.155-30.843v29.151l-3.35 3.149 8.496.459v8.068l-26.65-2.064 13.585-13.179v-6.495L28.175 53.465 4.919 51.667 42.222 11.55l-6.139.332L9.13 41.393V16.215l2.553-3.014-6.281.34V6.763z"
  />
  <path
    fill="#0b4819"
    d="M4.455 15.226l2.704-3.255 4.524 1.23-2.553 3.014z"
  />
  <path
    fill="#084010"
    d="M11.004 18.039l4.302.807v5.864l-4.302-.352z"
  />
  <path
    fill="#0c541e"
    d="M15.82 47.006l4.014-1.3 5.527.291-3.647 1.349z"
  />
  <path
    fill="#1a5c34"
    d="M23.808 3.106l3.513 1.96-12.015 13.78-4.302-.807z"
  />
  <path
    fill="#0b4819"
    d="M11.004 24.358L30.022 2.58l3.104 2.037-17.82 20.093z"
  />
  <path
    fill="#1a5c34"
    d="M33.195 10.432l2.888 1.45L9.13 41.393l-4.675.924z"
  />
  <path
    fill="#0b4819"
    d="M0 53.344l39.798-43.302 2.424 1.508L4.919 51.667z"
  />
  <path
    fill="#1a5c34"
    d="M45.597 34.677l2-.434-19.422 19.222-3.454 1.972z"
  />
  <path fill="#0b4819" d="M45.597 41.737v-7.06l2-.434v6.495z" />
  <path
    fill="#0b4819"
    d="M30.973 55.965l14.624-14.228 2-.999-13.585 13.179z"
  />
  <path
    fill="#13802d"
    d="M54.168 45.648l-3.63 3.411 1.628-1.605 3.35-3.149z"
  />
  <path
    fill="#0b4819"
    d="M21.714 47.346L54.168 13.9l1.348 1.254-30.155 30.843z"
  />
  <path
    fill="#084010"
    d="M54.168 13.9l1.348 1.254v29.151l-1.348 1.343zM59.759 49.604l.903-1.691v8.068l-.903 2.422z"
  />
  <path
    fill="#1a5c34"
    d="M60.507 0l.844 2.432-41.517 43.274-4.014 1.3z"
  />
  <path
    fill="url(#a)"
    d="M23.808 3.106L11.004 18.039v6.319L30.022 2.58 60.507 0 15.82 47.006l5.894.34L54.168 13.9v31.748l-3.63 3.411 9.221.545v8.799l-28.786-2.438 14.624-14.228v-7.06l-20.876 20.76L0 53.344l39.798-43.302-6.603.39-28.74 31.885V15.226l2.704-3.255-6.648.393V5.078z"
  />
  <path
    d="M77.6048 29.6913h10.2497v6.4145H77.6048v14.2784H72.085v.0026-34.4899h19.4136v6.4381H77.6048zM99.1165 29.6913h10.2523v6.4145H99.1165v14.2784h-5.5172v.0026-34.4899h19.4136v6.4381H99.1165zM121.5098 35.6716v14.7152h-6.438V28.0615l6.438-.6906v2.0457c1.4415-1.3525 3.2805-2.0222 5.5173-2.0222 2.9116 0 5.1352.8816 6.6682 2.6448 1.6874-1.7632 4.2145-2.6448 7.5866-2.6448 2.9116 0 5.1352.8816 6.6682 2.6448 1.533 1.7659 2.2995 3.7933 2.2995 6.0928v14.2548h-6.438v-12.646c0-1.533-.3453-2.7206-1.036-3.563-.6906-.8397-1.8077-1.2845-3.3564-1.3342-1.2714.0916-2.3753.934-3.3119 2.5297a9.2129 9.2129 0 00-.115 1.452V50.392h-6.4381V37.746c0-1.533-.3454-2.7206-1.036-3.563-.6906-.8397-1.8025-1.287-3.3511-1.3368-1.41.089-2.6292 1.0308-3.6573 2.8254zM153.4857 60.0426v-31.981l6.438-.6907v1.839c1.7162-1.2295 3.4035-1.839 5.0595-1.839 3.5264 0 6.323 1.1458 8.3922 3.4453 2.0693 2.3021 3.1053 4.981 3.1053 8.047s-1.036 5.7474-3.1053 8.0469-4.8658 3.448-8.3922 3.448c-2.2995-.157-3.9842-.7744-5.0594-1.8627v11.5655zm6.438-23.2435v3.7278c.3061 2.5716 1.915 4.0863 4.8293 4.5258 3.6781-.2904 5.7474-2.2001 6.2078-5.724-.1543-4.2954-2.2236-6.5138-6.2078-6.6708-2.9143.4604-4.5232 1.8417-4.8292 4.1412zM177.5035 38.8893c0-3.372 1.0726-6.1346 3.2178-8.2772 2.1451-2.1451 4.905-3.2177 8.2771-3.2177s6.0535 1.0726 8.047 3.2177c1.9934 2.1426 2.9901 4.9051 2.9901 8.2772v2.2995h-15.8637c.1544 1.227.6907 2.1844 1.6089 2.875s1.9934 1.036 3.2177 1.036c2.1452 0 4.0627-.6096 5.7475-1.8365l3.6781 3.6756c-1.6873 2.2995-4.8292 3.4479-9.4282 3.4479-3.372 0-6.132-1.0726-8.2771-3.2177s-3.2152-4.9051-3.2152-8.2798zm14.7153-5.172c-.9209-.6905-1.9934-1.0359-3.2178-1.0359s-2.2995.3454-3.2177 1.036-1.3786 1.648-1.3786 2.875h9.198c-.0053-1.227-.4657-2.1844-1.384-2.875zM224.4432 28.085v20.4627c0 3.2177-.9575 5.9097-2.875 8.0705s-4.3296 3.304-7.2439 3.4296l-1.3786.1387c-4.4447-.0916-7.8953-1.363-10.3465-3.8168l2.9902-3.448c1.6873 1.2296 3.733 1.915 6.1398 2.0693 2.4538 0 4.1124-.5755 4.9757-1.724.8685-1.1458 1.3002-2.4145 1.3002-3.7906V48.328c-1.7161 1.3786-3.7096 2.0693-5.9777 2.0693-3.5264 0-6.1686-1.036-7.9318-3.1053s-2.6448-4.8658-2.6448-8.3922c0-3.3721.9574-6.1346 2.875-8.2772 1.9176-2.1451 4.6356-3.2177 8.162-3.2177 2.6056.157 4.4447.8502 5.5173 2.0928V27.405zm-6.4381 12.8736v-3.7253c-.3061-2.5715-1.915-4.0862-4.8292-4.5257-3.8325.1386-5.9018 2.0457-6.2079 5.7239.1544 4.2955 2.2236 6.514 6.2079 6.6709 2.9142-.463 4.5231-1.8443 4.8292-4.1438z"
  />
</svg>