<svg xmlns="http://www.w3.org/2000/svg" viewBox="0 0 227.56 28">
  <defs />
  <path
    d="M0 10.86A11 11 0 0111 0a10.36 10.36 0 017.45 3l-2.08 2.09A7.52 7.52 0 0011 3a7.78 7.78 0 00-7.78 7.88A7.78 7.78 0 0011 18.73a7.26 7.26 0 005.48-2.17 6.18 6.18 0 001.62-3.73H11v-3h10a10.23 10.23 0 01.16 1.86 9.75 9.75 0 01-2.56 6.94 10 10 0 01-7.58 3A11 11 0 010 10.86zM29.24 7.74a6.88 6.88 0 00-7 7 7 7 0 0014 0 6.89 6.89 0 00-7-7zm0 11.24a4.05 4.05 0 01-3.95-4.25 4 4 0 117.9 0A4.06 4.06 0 0129.24 19zM44.56 7.74a6.89 6.89 0 00-7 7 7 7 0 0014 0 6.88 6.88 0 00-7-7zm0 11.24a4.05 4.05 0 01-4-4.25 4 4 0 117.91 0A4.08 4.08 0 0144.56 19zM63.35 8.15v1.14h-.11a4.78 4.78 0 00-3.68-1.57 7 7 0 000 14 4.76 4.76 0 003.68-1.59h.11v1c0 2.67-1.43 4.1-3.73 4.1a3.87 3.87 0 01-3.52-2.49l-2.67 1.12A6.68 6.68 0 0059.64 28c3.6 0 6.65-2.11 6.65-7.28V8.15zM59.83 19a4 4 0 01-3.89-4.22 4 4 0 013.89-4.27c2.09 0 3.72 1.8 3.72 4.27S61.92 19 59.83 19zM68.38.75h3.06V21.3h-3.06zM79.88 19a3.58 3.58 0 01-3.39-2.11L85.84 13l-.31-.79a6.49 6.49 0 00-6-4.45 6.66 6.66 0 00-6.6 7 6.84 6.84 0 006.93 7 7 7 0 005.84-3.1l-2.38-1.6A4.11 4.11 0 0179.88 19zm-.25-8.55a2.66 2.66 0 012.59 1.49L76 14.51a3.87 3.87 0 013.63-4.08zM103.78 4.66h-8.63v6h7.79V13h-7.79v6h8.63v2.34H92.71v-19h11.07zM110.12 21.73a5 5 0 01-3.46-1.2 3.92 3.92 0 01-1.39-3.15 3.92 3.92 0 011.64-3.33 6.62 6.62 0 014.06-1.2 7 7 0 013.51.79v-.37a3 3 0 00-1-2.3 3.49 3.49 0 00-2.4-.87 3.69 3.69 0 00-1.92.5A2.45 2.45 0 00108 12l-2.24-1a5 5 0 011.78-2.15 5.72 5.72 0 013.5-1 6 6 0 014.14 1.45 5.22 5.22 0 011.63 4.1v7.84h-2.34v-1.8h-.1a4.75 4.75 0 01-4.25 2.29zm.39-2.24a4 4 0 002.73-1.11 3.48 3.48 0 001.24-2.67 4.8 4.8 0 00-3.1-.85 4 4 0 00-2.67.76 2.34 2.34 0 00-.91 1.8 1.73 1.73 0 00.83 1.52 3.32 3.32 0 001.88.55zM121.66 8.32v2.11h.11a3.36 3.36 0 011.57-1.78 5.09 5.09 0 012.53-.65 6.79 6.79 0 01.86.06v2.38a8.14 8.14 0 00-1-.06 4.09 4.09 0 00-2.87 1 3.61 3.61 0 00-1.12 2.8v7.09h-2.44v-13zM135 21.5a4.14 4.14 0 01-3.1-1.07 4.12 4.12 0 01-1.08-3.07v-6.83h-2.27V8.32h2.27v-4h2.44v4h3.19v2.23h-3.19v6.63c0 1.4.58 2.11 1.74 2.11a2.55 2.55 0 001.12-.21l.85 2.09a5 5 0 01-1.97.33zM141.1 2.34v6l-.11 1.8h.11a4.24 4.24 0 011.67-1.57 4.82 4.82 0 012.45-.64 4.55 4.55 0 013.68 1.47 5.87 5.87 0 011.26 4v8h-2.44v-7.6c0-2.4-1.08-3.6-3.21-3.6a3 3 0 00-2.46 1.2 4.37 4.37 0 00-1 2.79v7.18h-2.45V2.34zM163.36 21.73a7.08 7.08 0 01-4-1.35 6.32 6.32 0 01-2.59-3.78l2.24-.91a5 5 0 001.63 2.62 4.06 4.06 0 002.78 1.08 4.41 4.41 0 002.71-.83 2.67 2.67 0 001.11-2.25 2.87 2.87 0 00-1.11-2.44 11.3 11.3 0 00-3.56-1.6 9.64 9.64 0 01-3.81-2A4.29 4.29 0 01157.42 7 4.71 4.71 0 01159 3.44a5.88 5.88 0 014.22-1.52 6 6 0 013.91 1.2 5.61 5.61 0 012 2.63l-2.24.93A3.37 3.37 0 00165.72 5a3.62 3.62 0 00-2.42-.77 3.79 3.79 0 00-2.4.79 2.4 2.4 0 00-1 1.94 2.19 2.19 0 00.91 1.78 8.41 8.41 0 002.69 1.31c.93.31 1.72.6 2.34.87a12.61 12.61 0 011.9 1.11 4.55 4.55 0 011.45 1.74 5.66 5.66 0 01.5 2.42 5.17 5.17 0 01-.58 2.47 4.49 4.49 0 01-1.51 1.71 7.93 7.93 0 01-2 1 6.8 6.8 0 01-2.24.36zM176.94 21.5a4.13 4.13 0 01-3.1-1.07 4.12 4.12 0 01-1.08-3.07v-6.83h-2.28V8.32h2.28v-4h2.44v4h3.19v2.23h-3.19v6.63c0 1.4.58 2.11 1.74 2.11a2.58 2.58 0 001.12-.21l.85 2.09a5 5 0 01-1.97.33zM191.86 21.29h-2.34v-1.8h-.1a4.43 4.43 0 01-1.7 1.58 4.82 4.82 0 01-2.4.64 4.59 4.59 0 01-3.7-1.49 5.9 5.9 0 01-1.27-4v-7.9h2.45v7.55c0 2.42 1.07 3.62 3.2 3.62a3 3 0 002.47-1.22 4.34 4.34 0 00.95-2.81V8.32h2.44zM199.89 21.73a5.72 5.72 0 01-4.35-2 7 7 0 01-1.84-4.92 7 7 0 011.82-4.93 5.73 5.73 0 014.35-2 5.38 5.38 0 012.67.64 4.35 4.35 0 011.76 1.59h.1l-.1-1.8v-6h2.44v19h-2.34v-1.8h-.1a4.51 4.51 0 01-1.76 1.6 5.64 5.64 0 01-2.65.62zm.39-2.24a3.83 3.83 0 002.92-1.26 4.72 4.72 0 001.2-3.41 4.74 4.74 0 00-1.2-3.42 4 4 0 00-5.83 0 4.74 4.74 0 00-1.23 3.4 4.74 4.74 0 001.23 3.39 3.87 3.87 0 002.91 1.3zM212.12 5.07a1.72 1.72 0 01-2.94-1.22 1.72 1.72 0 113.44 0 1.7 1.7 0 01-.5 1.22zm0 16.22h-2.44v-13h2.44zM216.07 9.87a6.36 6.36 0 014.81-2 6.42 6.42 0 014.8 2 6.88 6.88 0 011.88 5 6.86 6.86 0 01-1.88 4.94 6.32 6.32 0 01-4.8 2 6.4 6.4 0 01-4.81-2 6.86 6.86 0 01-1.88-4.94 6.85 6.85 0 011.88-5zm1.8 8.34a4.11 4.11 0 006 0 4.59 4.59 0 001.27-3.39 4.6 4.6 0 00-1.27-3.4 4.11 4.11 0 00-6 0 4.64 4.64 0 00-1.26 3.4 4.8 4.8 0 001.26 3.39z"
    style="fill: white"
  />
</svg>